<svg width="24" height="28" viewBox="0 0 24 28" fill="none" xmlns="http://www.w3.org/2000/svg">
<path fill-rule="evenodd" clip-rule="evenodd" d="M19.2907 4.85756C19.8032 4.85743 20.2254 5.31235 20.2498 5.89097L21.1185 26.5071C21.131 26.8035 21.0356 27.0928 20.8544 27.3075C20.6732 27.5223 20.4221 27.6438 20.1595 27.6438H4.79949C4.53702 27.6437 4.28603 27.5221 4.10493 27.3073C3.92384 27.0926 3.82844 26.8034 3.84093 26.5071L4.70954 5.89097C4.73394 5.31239 5.1561 4.85749 5.66858 4.85756H8.68615C8.68615 2.46052 10.4054 0.517334 12.5261 0.517334C14.6469 0.517334 16.3661 2.46052 16.3661 4.85756H19.2907ZM15.4061 4.85755C15.4043 3.06061 14.116 1.60441 12.5261 1.60238C10.9363 1.60441 9.64794 3.06061 9.64614 4.85755H15.4061ZM5.66859 5.94263H8.68616V9.74033C8.68616 10.04 8.90106 10.2829 9.16616 10.2829C9.43126 10.2829 9.64616 10.04 9.64616 9.74033V5.94263H15.4062V9.74033C15.4062 10.04 15.6211 10.2829 15.8862 10.2829C16.1513 10.2829 16.3662 10.04 16.3662 9.74033V5.94263H19.2797L19.9741 22.2185H4.98286L5.66859 5.94263ZM4.93668 23.3035L4.7995 26.5587H20.1595L20.0204 23.3035H4.93668Z" fill="white"/>
</svg>
