<svg width="523" height="983" viewBox="0 0 523 983" fill="none" xmlns="http://www.w3.org/2000/svg">
<path d="M382.645 149.651C420.979 200.522 413.952 278.198 371.314 362.806C328.693 447.382 250.555 538.728 146.989 616.77C43.424 694.812 -65.9204 744.744 -158.969 762.403C-252.052 780.068 -328.655 765.412 -366.989 714.541C-405.323 663.67 -398.296 585.995 -355.658 501.387C-313.036 416.81 -234.899 325.465 -131.333 247.423C-27.7679 169.381 81.5765 119.448 174.625 101.79C267.708 84.1251 344.311 98.7806 382.645 149.651Z" stroke="#0575E6"/>
<path d="M260.496 214.609C298.83 265.479 291.803 343.155 249.165 427.763C206.543 512.34 128.405 603.685 24.84 681.727C-78.7254 759.769 -188.07 809.702 -281.118 827.36C-374.201 845.025 -450.805 830.369 -489.138 779.499C-527.472 728.628 -520.445 650.952 -477.808 566.344C-435.186 481.768 -357.048 390.422 -253.483 312.38C-149.917 234.338 -40.5729 184.405 52.4753 166.747C145.558 149.082 222.162 163.738 260.496 214.609Z" stroke="#0575E6"/>
</svg>
