<svg width="24" height="23" viewBox="0 0 24 23" fill="none" xmlns="http://www.w3.org/2000/svg">
<path d="M5.71775 22.75H1.00119V7.56112H5.71775V22.75ZM3.35662 5.48925C1.84862 5.48925 0.625 4.23962 0.625 2.73163C0.625 2.00715 0.912795 1.31235 1.42507 0.800074C1.93735 0.287795 2.63215 0 3.35662 0C4.0811 0 4.7759 0.287795 5.28818 0.800074C5.80045 1.31235 6.08825 2.00715 6.08825 2.73163C6.08825 4.23962 4.86462 5.48925 3.35662 5.48925ZM23.3701 22.75H18.6641V15.3562C18.6641 13.5939 18.6284 11.3344 16.212 11.3344C13.7599 11.3344 13.3837 13.2486 13.3837 15.2295V22.75H8.672V7.56112H13.1952V9.633H13.261C13.8907 8.43944 15.4287 7.18006 17.7232 7.18006C22.4967 7.18006 23.3742 10.3236 23.3742 14.4064V22.75H23.3701Z" fill="#0E76A8"/>
</svg>
