<svg width="26" height="27" viewBox="0 0 26 27" fill="none" xmlns="http://www.w3.org/2000/svg">
<path fill-rule="evenodd" clip-rule="evenodd" d="M17.6838 17.5421L25.4507 25.2922C25.6522 25.5005 25.6493 25.8314 25.4442 26.0361C25.2391 26.2408 24.9074 26.2437 24.6987 26.0426L16.9318 18.2924C12.8449 21.9635 6.57076 21.7172 2.78565 17.7369C-0.999469 13.7567 -0.917155 7.49203 2.97124 3.61217C6.85963 -0.267679 13.1381 -0.349813 17.1271 3.42699C21.1161 7.20379 21.363 13.4642 17.6838 17.5421ZM1.1438 10.8093C1.1438 15.7914 5.19149 19.8302 10.1846 19.8302C15.1752 19.8244 19.2195 15.789 19.2253 10.8093C19.2253 5.82727 15.1777 1.78849 10.1846 1.78849C5.19149 1.78849 1.1438 5.82727 1.1438 10.8093Z" fill="#E5E5E5"/>
</svg>
