<svg width="26" height="22" viewBox="0 0 26 22" fill="none" xmlns="http://www.w3.org/2000/svg">
<path d="M26 2.58629C25.0433 3.01078 24.0153 3.29766 22.9363 3.42673C24.0377 2.76617 24.8834 1.72015 25.2816 0.473834C24.2346 1.09556 23.089 1.5336 21.8944 1.76903C20.9214 0.731756 19.5351 0.0834961 18.0008 0.0834961C15.0549 0.0834961 12.6665 2.47329 12.6665 5.42079C12.6665 5.83918 12.7137 6.24649 12.8046 6.63723C8.37139 6.41457 4.44092 4.28972 1.80995 1.06051C1.35088 1.84881 1.08784 2.76576 1.08784 3.74379C1.08784 5.59559 2.02962 7.22919 3.46084 8.18639C2.61376 8.15985 1.78532 7.93092 1.04467 7.51872C1.04437 7.54108 1.04437 7.56344 1.04437 7.58589C1.04437 10.1719 2.88305 12.3292 5.32319 12.8195C4.5377 13.0333 3.71376 13.0646 2.91434 12.911C3.59308 15.0315 5.56309 16.5745 7.8972 16.6177C6.07161 18.0492 3.77152 18.9025 1.27248 18.9025C0.841852 18.9025 0.41732 18.8772 0 18.828C2.36062 20.3424 5.16445 21.226 8.1768 21.226C17.9884 21.226 23.3537 13.0929 23.3537 6.03978C23.3537 5.80829 23.3486 5.57811 23.3383 5.34925C24.3825 4.59386 25.2839 3.65824 26 2.58629Z" fill="#55ACEE"/>
</svg>
